<svg xmlns="http://www.w3.org/2000/svg" viewBox="0 0 800 800">
    <!-- White background -->
    <rect fill="#ffffff" width="800" height="800" />
    
    <!-- Outer ring -->
    <circle fill="#f4f4f4" cx="400" cy="400" r="330" />

    <!-- Inner pattern -->
    <path
        d="M653.349 454.074L652.96 454.034L653.04 453.645C656.774 436.074 658.672 418.016 658.672 399.957C658.672 381.898 656.774 363.779 653.04 346.288L652.96 345.9L653.359 345.86C668.079 344.505 683.228 342.941 698.377 341.208C707.235 340.192 716.112 339.086 724.96 337.921C722.314 324.036 718.799 310.459 714.465 297.241C713.726 295.03 712.977 292.829 712.218 290.627C711.449 288.426 710.65 286.245 709.841 284.073C708.213 279.72 706.476 275.407 704.678 271.154C703.769 269.022 702.841 266.911 701.902 264.809C700.464 261.642 698.996 258.494 697.458 255.386C695.94 252.278 694.362 249.191 692.765 246.153C686.843 234.957 680.282 224.129 673.142 213.73C671.854 211.848 670.545 209.985 669.207 208.122C666.531 204.387 663.785 200.731 660.969 197.126C657.454 192.623 653.809 188.221 650.064 183.908C648.566 182.175 647.048 180.461 645.5 178.768C641.665 174.535 637.711 170.401 633.666 166.367C628.084 160.809 622.312 155.46 616.34 150.31C610.948 157.313 605.555 164.425 600.223 171.586C591.585 183.211 582.617 195.562 573.59 208.272L573.36 208.591L573.07 208.322C545.878 183.868 514.541 165.769 479.939 154.524L479.56 154.404L479.73 154.045C486.001 140.459 492.212 126.594 498.204 112.838C501.819 104.53 505.324 96.263 508.66 88.1848C504.975 86.8999 501.26 85.6847 497.505 84.5392C496.536 84.2503 495.568 83.9515 494.599 83.6626C492.662 83.0849 490.724 82.5371 488.757 81.9892C485.821 81.1725 482.885 80.3955 479.929 79.6783C478.941 79.4293 477.952 79.2002 476.963 78.9612C456.232 74.0306 434.752 71.0424 412.732 70.2256C408.508 70.0662 404.264 69.9766 400.01 69.9766C361.953 69.9766 325.393 76.3813 291.37 88.1848C294.866 96.6116 298.381 104.899 301.826 112.838C307.568 126.046 313.779 139.921 320.29 154.065L320.46 154.424L320.081 154.543C285.499 165.769 254.172 183.858 226.96 208.332L226.67 208.6L226.44 208.282C217.403 195.562 208.445 183.22 199.807 171.596C194.165 164.016 188.892 157.054 183.68 150.3C128.446 197.933 89.1904 263.514 75 337.951C84.0075 339.146 92.9551 340.252 101.603 341.238C116.762 342.971 131.901 344.535 146.621 345.89L147.01 345.93L146.93 346.318C143.196 363.819 141.298 381.878 141.298 399.987C141.298 418.095 143.196 436.104 146.93 453.675L147.01 454.064L146.621 454.103C131.911 455.458 116.762 457.022 101.603 458.755C92.9452 459.751 83.9975 460.857 75 462.042C83.4982 506.646 101.014 548.073 125.58 584.36C141.987 608.625 161.57 630.588 183.69 649.683C188.882 642.95 194.155 635.987 199.797 628.407C208.435 616.783 217.403 604.441 226.43 591.721L226.66 591.403L226.95 591.672C254.132 616.125 285.459 634.224 320.071 645.46L320.45 645.579L320.28 645.938C313.769 660.082 307.558 673.947 301.816 687.165C298.371 695.094 294.856 703.381 291.37 711.798C325.393 723.602 361.953 730.007 400 730.007C404.174 730.007 408.318 729.937 412.453 729.777C413.511 729.738 414.56 729.688 415.608 729.638C416.667 729.588 417.715 729.538 418.764 729.479C420.861 729.369 422.958 729.23 425.045 729.07C426.943 728.921 428.85 728.761 430.747 728.592C430.927 728.582 431.107 728.572 431.277 728.542C432.175 728.473 433.054 728.383 433.943 728.283C434.552 728.224 435.161 728.164 435.76 728.084C437.947 727.855 440.114 727.596 442.281 727.327C458.419 725.275 474.207 722.068 489.546 717.775C495.997 715.962 502.368 713.97 508.66 711.788C505.324 703.72 501.819 695.463 498.214 687.165C492.232 673.41 486.021 659.544 479.74 645.958L479.57 645.599L479.949 645.48C514.551 634.254 545.888 616.145 573.08 591.681L573.37 591.413L573.6 591.731C582.637 604.441 591.595 616.783 600.233 628.417C605.555 635.569 610.948 642.691 616.331 649.683C671.554 602.041 710.81 536.479 725 462.052C716.162 460.887 707.285 459.791 698.427 458.765C683.268 457.032 668.119 455.468 653.409 454.113L653.349 454.074Z"
        fill="#221F20" />

    <!-- Shadow -->
    <path fill="#232323" opacity="0.5"
        d="M166.26,408.2c0-133.24,108.4-241.64,241.64-241.64c64.05,0,122.36,25.06,165.64,65.88c-43.98-45.61-105.67-74.02-173.88-74.02c-133.24,0-241.64,108.4-241.64,241.64c0,69.19,29.24,131.67,75.99,175.76c-41.93-43.48-67.76-102.58-67.76-167.61Z" />

    <!-- Border ring -->
    <circle fill="none" stroke="#454545" stroke-width="2" cx="400" cy="400" r="240" />

    <!-- Inner circle -->
    <circle fill="#272220" stroke="#f4f4f4" stroke-width="2" cx="400" cy="400" r="210" />

    <!-- Opepen Eyes -->
    <path fill="#f4f4f4"
        d="M350.82,284.48c10.68,0,21.12,3.17,30,9.1c8.88,5.93,15.8,14.37,19.89,24.23c4.09,9.87,5.16,20.72,3.07,31.2c-2.08,10.47-7.23,20.09-14.78,27.65c-7.55,7.55-17.17,12.69-27.65,14.78c-10.47,2.08-21.33,1.01-31.2-3.07c-9.87-4.09-18.3-11.01-24.23-19.89c-5.93-8.88-9.1-19.32-9.1-30v-53.99h53.99Z" />
    <circle fill="#f4f4f4" cx="459" cy="338" r="54" />
    
    <!-- Bid numbers container -->
    <g transform="translate(274, 419)">
    </g>
</svg>